<svg xmlns="http://www.w3.org/2000/svg" viewBox="0 0 32 32">
  <circle cx="16" cy="16" r="16" fill="#14F195"/>
  <g fill="white">
    <path d="M5.8 20.6c.2-.3.5-.5.9-.5h18.6c.7 0 1 .8.5 1.3l-2.9 3.1c-.2.3-.5.5-.9.5H3.4c-.7 0-1-.8-.5-1.3l2.9-3.1z"/>
    <path d="M5.8 7.4c.2-.3.5-.5.9-.5H25.3c.7 0 1 .8.5 1.3L22.9 11.3c-.2.3-.5.5-.9.5H3.4c-.7 0-1-.8-.5-1.3L5.8 7.4z"/>
    <path d="M22.9 13.7c.2-.3.5-.5.9-.5H28.6c.7 0 1 .8.5 1.3l-2.9 3.1c-.2.3-.5.5-.9.5H6.7c-.7 0-1-.8-.5-1.3l2.9-3.1z"/>
  </g>
</svg>